<?xml version="1.0" encoding="UTF-8"?>
<svg xmlns="http://www.w3.org/2000/svg" xmlns:xlink="http://www.w3.org/1999/xlink" width="1050" height="750">
<defs>
<path id="s" transform="scale(30)" fill="#fff" d="M0,-1 L0.58779,0.80902 L-0.95106,-0.30902 L0.95106,-0.30902 L-0.58779,0.80902z"/>
<g id="s3">
	<g id="s2">
		<use xlink:href="#s" transform="translate(50,66.67)rotate(90)"/>
		<use xlink:href="#s" transform="translate(200,66.67)rotate(90)"/>
	</g>
	<use xlink:href="#s" transform="translate(350,66.67)rotate(90)"/>
</g>
<g id="u">
	<use xlink:href="#s3"/>
	<use xlink:href="#s3" transform="scale(-1,1)" x="-475" y="66.67"/>
	<use xlink:href="#s3" y="133.33"/>
	<use xlink:href="#s3" transform="scale(-1,1)" x="-475" y="200"/>
	<use xlink:href="#s2" y="266.67"/>
	<use xlink:href="#s" transform="translate(350,333.33)rotate(180)"/>
</g>
</defs>
<rect width="1050" height="750" fill="#BB133E"/>
<path stroke="#FFF" stroke-width="50" d="M0,75H1050M0,175H1050M0,275H1050M0,375H1050M0,475H1050M0,575H1050M0,675H1050"/>
<rect width="475" height="400" fill="#002664"/>
<use xlink:href="#u"/>
</svg>